<svg xmlns="http://www.w3.org/2000/svg" version="1.1" xmlns:xlink="http://www.w3.org/1999/xlink" xmlns:svgjs="http://svgjs.dev/svgjs" width="1600" height="580" preserveAspectRatio="none" viewBox="0 0 1600 580"><g mask="url(&quot;#SvgjsMask2597&quot;)" fill="none"><rect width="1600" height="580" x="0" y="0" fill="url(&quot;#SvgjsLinearGradient2598&quot;)"></rect><path d="M-64.69 380.67L-64.69 380.67" stroke="#132e65" stroke-width="1.5"></path><path d="M-64.69 380.67L-47.74 490.31" stroke="#132e65" stroke-width="1.5"></path><path d="M-47.74 490.31L-47.74 490.31" stroke="#132e65" stroke-width="1.5"></path><path d="M-47.74 490.31L56.9 517.44" stroke="#132e65" stroke-width="1.5"></path><path d="M-47.74 490.31L87.45 381.9" stroke="#132e65" stroke-width="1.5"></path><path d="M-78.09 684.99L-78.09 684.99" stroke="#132e65" stroke-width="1.5"></path><path d="M-78.09 684.99L104.42 662.51" stroke="#132e65" stroke-width="1.5"></path><path d="M-78.09 684.99L-47.74 490.31" stroke="#132e65" stroke-width="1.5"></path><path d="M87.45 381.9L87.45 381.9" stroke="#132e65" stroke-width="1.5"></path><path d="M87.45 381.9L56.9 517.44" stroke="#132e65" stroke-width="1.5"></path><path d="M56.9 517.44L56.9 517.44" stroke="#132e65" stroke-width="1.5"></path><path d="M56.9 517.44L203.45 487.91" stroke="#132e65" stroke-width="1.5"></path><path d="M104.42 662.51L104.42 662.51" stroke="#132e65" stroke-width="1.5"></path><path d="M104.42 662.51L208.78 684.04" stroke="#132e65" stroke-width="1.5"></path><path d="M104.42 662.51L56.9 517.44" stroke="#132e65" stroke-width="1.5"></path><path d="M104.42 662.51L203.45 487.91" stroke="#132e65" stroke-width="1.5"></path><path d="M104.42 662.51L-47.74 490.31" stroke="#132e65" stroke-width="1.5"></path><path d="M104.42 662.51L346.2 650.09" stroke="#132e65" stroke-width="1.5"></path><path d="M252.61 388.55L252.61 388.55" stroke="#132e65" stroke-width="1.5"></path><path d="M252.61 388.55L203.45 487.91" stroke="#132e65" stroke-width="1.5"></path><path d="M252.61 388.55L396.92 352.05" stroke="#132e65" stroke-width="1.5"></path><path d="M252.61 388.55L357.39 512.81" stroke="#132e65" stroke-width="1.5"></path><path d="M252.61 388.55L87.45 381.9" stroke="#132e65" stroke-width="1.5"></path><path d="M252.61 388.55L56.9 517.44" stroke="#132e65" stroke-width="1.5"></path><path d="M252.61 388.55L492.17 366.58" stroke="#132e65" stroke-width="1.5"></path><path d="M203.45 487.91L203.45 487.91" stroke="#132e65" stroke-width="1.5"></path><path d="M208.78 684.04L208.78 684.04" stroke="#132e65" stroke-width="1.5"></path><path d="M208.78 684.04L346.2 650.09" stroke="#132e65" stroke-width="1.5"></path><path d="M208.78 684.04L203.45 487.91" stroke="#132e65" stroke-width="1.5"></path><path d="M396.92 352.05L396.92 352.05" stroke="#132e65" stroke-width="1.5"></path><path d="M396.92 352.05L492.17 366.58" stroke="#132e65" stroke-width="1.5"></path><path d="M396.92 352.05L357.39 512.81" stroke="#132e65" stroke-width="1.5"></path><path d="M396.92 352.05L503.78 536.74" stroke="#132e65" stroke-width="1.5"></path><path d="M396.92 352.05L203.45 487.91" stroke="#132e65" stroke-width="1.5"></path><path d="M396.92 352.05L686.61 403.47" stroke="#132e65" stroke-width="1.5"></path><path d="M357.39 512.81L357.39 512.81" stroke="#132e65" stroke-width="1.5"></path><path d="M357.39 512.81L346.2 650.09" stroke="#132e65" stroke-width="1.5"></path><path d="M357.39 512.81L503.78 536.74" stroke="#132e65" stroke-width="1.5"></path><path d="M346.2 650.09L346.2 650.09" stroke="#132e65" stroke-width="1.5"></path><path d="M492.17 366.58L492.17 366.58" stroke="#132e65" stroke-width="1.5"></path><path d="M492.17 366.58L503.78 536.74" stroke="#132e65" stroke-width="1.5"></path><path d="M492.17 366.58L686.61 403.47" stroke="#132e65" stroke-width="1.5"></path><path d="M492.17 366.58L357.39 512.81" stroke="#132e65" stroke-width="1.5"></path><path d="M503.78 536.74L503.78 536.74" stroke="#132e65" stroke-width="1.5"></path><path d="M503.78 536.74L499.89 639.13" stroke="#132e65" stroke-width="1.5"></path><path d="M499.89 639.13L499.89 639.13" stroke="#132e65" stroke-width="1.5"></path><path d="M499.89 639.13L346.2 650.09" stroke="#132e65" stroke-width="1.5"></path><path d="M499.89 639.13L666.55 640.23" stroke="#132e65" stroke-width="1.5"></path><path d="M499.89 639.13L357.39 512.81" stroke="#132e65" stroke-width="1.5"></path><path d="M686.61 403.47L686.61 403.47" stroke="#132e65" stroke-width="1.5"></path><path d="M686.61 403.47L658.89 507.17" stroke="#132e65" stroke-width="1.5"></path><path d="M686.61 403.47L811.42 409.97" stroke="#132e65" stroke-width="1.5"></path><path d="M658.89 507.17L658.89 507.17" stroke="#132e65" stroke-width="1.5"></path><path d="M658.89 507.17L666.55 640.23" stroke="#132e65" stroke-width="1.5"></path><path d="M658.89 507.17L806.96 536.7" stroke="#132e65" stroke-width="1.5"></path><path d="M658.89 507.17L503.78 536.74" stroke="#132e65" stroke-width="1.5"></path><path d="M658.89 507.17L811.42 409.97" stroke="#132e65" stroke-width="1.5"></path><path d="M666.55 640.23L666.55 640.23" stroke="#132e65" stroke-width="1.5"></path><path d="M666.55 640.23L806.96 536.7" stroke="#132e65" stroke-width="1.5"></path><path d="M666.55 640.23L842.55 645.56" stroke="#132e65" stroke-width="1.5"></path><path d="M848.55 261.75L848.55 261.75" stroke="#132e65" stroke-width="1.5"></path><path d="M848.55 261.75L979.77 216.63" stroke="#132e65" stroke-width="1.5"></path><path d="M848.55 261.75L811.42 409.97" stroke="#132e65" stroke-width="1.5"></path><path d="M811.42 409.97L811.42 409.97" stroke="#132e65" stroke-width="1.5"></path><path d="M811.42 409.97L806.96 536.7" stroke="#132e65" stroke-width="1.5"></path><path d="M811.42 409.97L937.72 387.6" stroke="#132e65" stroke-width="1.5"></path><path d="M806.96 536.7L806.96 536.7" stroke="#132e65" stroke-width="1.5"></path><path d="M806.96 536.7L842.55 645.56" stroke="#132e65" stroke-width="1.5"></path><path d="M806.96 536.7L969.61 517.56" stroke="#132e65" stroke-width="1.5"></path><path d="M842.55 645.56L842.55 645.56" stroke="#132e65" stroke-width="1.5"></path><path d="M842.55 645.56L984.51 706.44" stroke="#132e65" stroke-width="1.5"></path><path d="M842.55 645.56L969.61 517.56" stroke="#132e65" stroke-width="1.5"></path><path d="M842.55 645.56L658.89 507.17" stroke="#132e65" stroke-width="1.5"></path><path d="M842.55 645.56L811.42 409.97" stroke="#132e65" stroke-width="1.5"></path><path d="M987.67 69.71L987.67 69.71" stroke="#132e65" stroke-width="1.5"></path><path d="M987.67 69.71L979.77 216.63" stroke="#132e65" stroke-width="1.5"></path><path d="M979.77 216.63L979.77 216.63" stroke="#132e65" stroke-width="1.5"></path><path d="M979.77 216.63L1103.06 339.53" stroke="#132e65" stroke-width="1.5"></path><path d="M979.77 216.63L1153.92 200.37" stroke="#132e65" stroke-width="1.5"></path><path d="M937.72 387.6L937.72 387.6" stroke="#132e65" stroke-width="1.5"></path><path d="M937.72 387.6L969.61 517.56" stroke="#132e65" stroke-width="1.5"></path><path d="M937.72 387.6L848.55 261.75" stroke="#132e65" stroke-width="1.5"></path><path d="M969.61 517.56L969.61 517.56" stroke="#132e65" stroke-width="1.5"></path><path d="M984.51 706.44L984.51 706.44" stroke="#132e65" stroke-width="1.5"></path><path d="M984.51 706.44L1114.04 643.9" stroke="#132e65" stroke-width="1.5"></path><path d="M984.51 706.44L969.61 517.56" stroke="#132e65" stroke-width="1.5"></path><path d="M984.51 706.44L806.96 536.7" stroke="#132e65" stroke-width="1.5"></path><path d="M1130.12 -51.29L1130.12 -51.29" stroke="#132e65" stroke-width="1.5"></path><path d="M1130.12 -51.29L1152.25 46.54" stroke="#132e65" stroke-width="1.5"></path><path d="M1130.12 -51.29L987.67 69.71" stroke="#132e65" stroke-width="1.5"></path><path d="M1130.12 -51.29L1270.16 94.45" stroke="#132e65" stroke-width="1.5"></path><path d="M1130.12 -51.29L1153.92 200.37" stroke="#132e65" stroke-width="1.5"></path><path d="M1130.12 -51.29L979.77 216.63" stroke="#132e65" stroke-width="1.5"></path><path d="M1130.12 -51.29L1262.99 241.5" stroke="#132e65" stroke-width="1.5"></path><path d="M1152.25 46.54L1152.25 46.54" stroke="#132e65" stroke-width="1.5"></path><path d="M1152.25 46.54L1270.16 94.45" stroke="#132e65" stroke-width="1.5"></path><path d="M1152.25 46.54L1153.92 200.37" stroke="#132e65" stroke-width="1.5"></path><path d="M1153.92 200.37L1153.92 200.37" stroke="#132e65" stroke-width="1.5"></path><path d="M1153.92 200.37L1262.99 241.5" stroke="#132e65" stroke-width="1.5"></path><path d="M1153.92 200.37L1103.06 339.53" stroke="#132e65" stroke-width="1.5"></path><path d="M1153.92 200.37L1270.16 94.45" stroke="#132e65" stroke-width="1.5"></path><path d="M1103.06 339.53L1103.06 339.53" stroke="#132e65" stroke-width="1.5"></path><path d="M1147.16 511.92L1147.16 511.92" stroke="#132e65" stroke-width="1.5"></path><path d="M1147.16 511.92L1114.04 643.9" stroke="#132e65" stroke-width="1.5"></path><path d="M1147.16 511.92L1292.58 532.82" stroke="#132e65" stroke-width="1.5"></path><path d="M1147.16 511.92L969.61 517.56" stroke="#132e65" stroke-width="1.5"></path><path d="M1114.04 643.9L1114.04 643.9" stroke="#132e65" stroke-width="1.5"></path><path d="M1270.16 94.45L1270.16 94.45" stroke="#132e65" stroke-width="1.5"></path><path d="M1270.16 94.45L1262.99 241.5" stroke="#132e65" stroke-width="1.5"></path><path d="M1262.99 241.5L1262.99 241.5" stroke="#132e65" stroke-width="1.5"></path><path d="M1262.99 241.5L1434.42 187.54" stroke="#132e65" stroke-width="1.5"></path><path d="M1262.99 241.5L1103.06 339.53" stroke="#132e65" stroke-width="1.5"></path><path d="M1292.58 532.82L1292.58 532.82" stroke="#132e65" stroke-width="1.5"></path><path d="M1295.63 690.52L1295.63 690.52" stroke="#132e65" stroke-width="1.5"></path><path d="M1295.63 690.52L1399.5 673.78" stroke="#132e65" stroke-width="1.5"></path><path d="M1295.63 690.52L1292.58 532.82" stroke="#132e65" stroke-width="1.5"></path><path d="M1295.63 690.52L1114.04 643.9" stroke="#132e65" stroke-width="1.5"></path><path d="M1295.63 690.52L1147.16 511.92" stroke="#132e65" stroke-width="1.5"></path><path d="M1295.63 690.52L1437.79 496.38" stroke="#132e65" stroke-width="1.5"></path><path d="M1440.86 37.8L1440.86 37.8" stroke="#132e65" stroke-width="1.5"></path><path d="M1440.86 37.8L1561.77 38.54" stroke="#132e65" stroke-width="1.5"></path><path d="M1440.86 37.8L1434.42 187.54" stroke="#132e65" stroke-width="1.5"></path><path d="M1440.86 37.8L1270.16 94.45" stroke="#132e65" stroke-width="1.5"></path><path d="M1440.86 37.8L1599.37 -62.5" stroke="#132e65" stroke-width="1.5"></path><path d="M1440.86 37.8L1262.99 241.5" stroke="#132e65" stroke-width="1.5"></path><path d="M1434.42 187.54L1434.42 187.54" stroke="#132e65" stroke-width="1.5"></path><path d="M1446.3 409.29L1446.3 409.29" stroke="#132e65" stroke-width="1.5"></path><path d="M1446.3 409.29L1437.79 496.38" stroke="#132e65" stroke-width="1.5"></path><path d="M1446.3 409.29L1555.51 360.17" stroke="#132e65" stroke-width="1.5"></path><path d="M1446.3 409.29L1580.74 547.28" stroke="#132e65" stroke-width="1.5"></path><path d="M1446.3 409.29L1292.58 532.82" stroke="#132e65" stroke-width="1.5"></path><path d="M1437.79 496.38L1437.79 496.38" stroke="#132e65" stroke-width="1.5"></path><path d="M1437.79 496.38L1292.58 532.82" stroke="#132e65" stroke-width="1.5"></path><path d="M1437.79 496.38L1580.74 547.28" stroke="#132e65" stroke-width="1.5"></path><path d="M1399.5 673.78L1399.5 673.78" stroke="#132e65" stroke-width="1.5"></path><path d="M1399.5 673.78L1555.27 701.21" stroke="#132e65" stroke-width="1.5"></path><path d="M1599.37 -62.5L1599.37 -62.5" stroke="#132e65" stroke-width="1.5"></path><path d="M1599.37 -62.5L1561.77 38.54" stroke="#132e65" stroke-width="1.5"></path><path d="M1599.37 -62.5L1711.92 -43.53" stroke="#132e65" stroke-width="1.5"></path><path d="M1561.77 38.54L1561.77 38.54" stroke="#132e65" stroke-width="1.5"></path><path d="M1561.77 38.54L1711.92 -43.53" stroke="#132e65" stroke-width="1.5"></path><path d="M1561.77 38.54L1754.7 48.88" stroke="#132e65" stroke-width="1.5"></path><path d="M1555.51 360.17L1555.51 360.17" stroke="#132e65" stroke-width="1.5"></path><path d="M1555.51 360.17L1725.23 410.55" stroke="#132e65" stroke-width="1.5"></path><path d="M1555.51 360.17L1437.79 496.38" stroke="#132e65" stroke-width="1.5"></path><path d="M1555.51 360.17L1580.74 547.28" stroke="#132e65" stroke-width="1.5"></path><path d="M1555.51 360.17L1434.42 187.54" stroke="#132e65" stroke-width="1.5"></path><path d="M1555.51 360.17L1759.79 259.96" stroke="#132e65" stroke-width="1.5"></path><path d="M1580.74 547.28L1580.74 547.28" stroke="#132e65" stroke-width="1.5"></path><path d="M1580.74 547.28L1721.42 547.36" stroke="#132e65" stroke-width="1.5"></path><path d="M1555.27 701.21L1555.27 701.21" stroke="#132e65" stroke-width="1.5"></path><path d="M1555.27 701.21L1580.74 547.28" stroke="#132e65" stroke-width="1.5"></path><path d="M1555.27 701.21L1739.65 664.1" stroke="#132e65" stroke-width="1.5"></path><path d="M1555.27 701.21L1721.42 547.36" stroke="#132e65" stroke-width="1.5"></path><path d="M1555.27 701.21L1437.79 496.38" stroke="#132e65" stroke-width="1.5"></path><path d="M1555.27 701.21L1295.63 690.52" stroke="#132e65" stroke-width="1.5"></path><path d="M1711.92 -43.53L1711.92 -43.53" stroke="#132e65" stroke-width="1.5"></path><path d="M1711.92 -43.53L1754.7 48.88" stroke="#132e65" stroke-width="1.5"></path><path d="M1711.92 -43.53L1440.86 37.8" stroke="#132e65" stroke-width="1.5"></path><path d="M1711.92 -43.53L1759.79 259.96" stroke="#132e65" stroke-width="1.5"></path><path d="M1754.7 48.88L1754.7 48.88" stroke="#132e65" stroke-width="1.5"></path><path d="M1754.7 48.88L1599.37 -62.5" stroke="#132e65" stroke-width="1.5"></path><path d="M1754.7 48.88L1759.79 259.96" stroke="#132e65" stroke-width="1.5"></path><path d="M1754.7 48.88L1440.86 37.8" stroke="#132e65" stroke-width="1.5"></path><path d="M1754.7 48.88L1434.42 187.54" stroke="#132e65" stroke-width="1.5"></path><path d="M1759.79 259.96L1759.79 259.96" stroke="#132e65" stroke-width="1.5"></path><path d="M1759.79 259.96L1725.23 410.55" stroke="#132e65" stroke-width="1.5"></path><path d="M1725.23 410.55L1725.23 410.55" stroke="#132e65" stroke-width="1.5"></path><path d="M1725.23 410.55L1721.42 547.36" stroke="#132e65" stroke-width="1.5"></path><path d="M1725.23 410.55L1580.74 547.28" stroke="#132e65" stroke-width="1.5"></path><path d="M1725.23 410.55L1739.65 664.1" stroke="#132e65" stroke-width="1.5"></path><path d="M1725.23 410.55L1446.3 409.29" stroke="#132e65" stroke-width="1.5"></path><path d="M1721.42 547.36L1721.42 547.36" stroke="#132e65" stroke-width="1.5"></path><path d="M1721.42 547.36L1739.65 664.1" stroke="#132e65" stroke-width="1.5"></path><path d="M1739.65 664.1L1739.65 664.1" stroke="#132e65" stroke-width="1.5"></path><path d="M1739.65 664.1L1580.74 547.28" stroke="#132e65" stroke-width="1.5"></path><circle r="5" cx="-64.69" cy="380.67" fill="#132e65"></circle><circle r="5" cx="-47.74" cy="490.31" fill="#132e65"></circle><circle r="5" cx="-78.09" cy="684.99" fill="#132e65"></circle><circle r="5" cx="87.45" cy="381.9" fill="#132e65"></circle><circle r="5" cx="56.9" cy="517.44" fill="#132e65"></circle><circle r="5" cx="104.42" cy="662.51" fill="#132e65"></circle><circle r="5" cx="252.61" cy="388.55" fill="#132e65"></circle><circle r="5" cx="203.45" cy="487.91" fill="#132e65"></circle><circle r="5" cx="208.78" cy="684.04" fill="#132e65"></circle><circle r="5" cx="396.92" cy="352.05" fill="#132e65"></circle><circle r="5" cx="357.39" cy="512.81" fill="#132e65"></circle><circle r="5" cx="346.2" cy="650.09" fill="#132e65"></circle><circle r="5" cx="492.17" cy="366.58" fill="#132e65"></circle><circle r="5" cx="503.78" cy="536.74" fill="#132e65"></circle><circle r="5" cx="499.89" cy="639.13" fill="#132e65"></circle><circle r="5" cx="686.61" cy="403.47" fill="#132e65"></circle><circle r="5" cx="658.89" cy="507.17" fill="#132e65"></circle><circle r="5" cx="666.55" cy="640.23" fill="#132e65"></circle><circle r="5" cx="848.55" cy="261.75" fill="#132e65"></circle><circle r="5" cx="811.42" cy="409.97" fill="#132e65"></circle><circle r="5" cx="806.96" cy="536.7" fill="#132e65"></circle><circle r="5" cx="842.55" cy="645.56" fill="#132e65"></circle><circle r="5" cx="987.67" cy="69.71" fill="#132e65"></circle><circle r="5" cx="979.77" cy="216.63" fill="#132e65"></circle><circle r="5" cx="937.72" cy="387.6" fill="#132e65"></circle><circle r="5" cx="969.61" cy="517.56" fill="#132e65"></circle><circle r="5" cx="984.51" cy="706.44" fill="#132e65"></circle><circle r="5" cx="1130.12" cy="-51.29" fill="#132e65"></circle><circle r="5" cx="1152.25" cy="46.54" fill="#132e65"></circle><circle r="5" cx="1153.92" cy="200.37" fill="#132e65"></circle><circle r="5" cx="1103.06" cy="339.53" fill="#132e65"></circle><circle r="5" cx="1147.16" cy="511.92" fill="#132e65"></circle><circle r="5" cx="1114.04" cy="643.9" fill="#132e65"></circle><circle r="5" cx="1270.16" cy="94.45" fill="#132e65"></circle><circle r="5" cx="1262.99" cy="241.5" fill="#132e65"></circle><circle r="5" cx="1292.58" cy="532.82" fill="#132e65"></circle><circle r="5" cx="1295.63" cy="690.52" fill="#132e65"></circle><circle r="5" cx="1440.86" cy="37.8" fill="#132e65"></circle><circle r="5" cx="1434.42" cy="187.54" fill="#132e65"></circle><circle r="5" cx="1446.3" cy="409.29" fill="#132e65"></circle><circle r="5" cx="1437.79" cy="496.38" fill="#132e65"></circle><circle r="5" cx="1399.5" cy="673.78" fill="#132e65"></circle><circle r="5" cx="1599.37" cy="-62.5" fill="#132e65"></circle><circle r="5" cx="1561.77" cy="38.54" fill="#132e65"></circle><circle r="5" cx="1555.51" cy="360.17" fill="#132e65"></circle><circle r="5" cx="1580.74" cy="547.28" fill="#132e65"></circle><circle r="5" cx="1555.27" cy="701.21" fill="#132e65"></circle><circle r="5" cx="1711.92" cy="-43.53" fill="#132e65"></circle><circle r="5" cx="1754.7" cy="48.88" fill="#132e65"></circle><circle r="5" cx="1759.79" cy="259.96" fill="#132e65"></circle><circle r="5" cx="1725.23" cy="410.55" fill="#132e65"></circle><circle r="5" cx="1721.42" cy="547.36" fill="#132e65"></circle><circle r="5" cx="1739.65" cy="664.1" fill="#132e65"></circle><path d="M-46.65 542.36L-46.65 542.36" stroke="hsl(228.5, 77.2%, 51.5%)" stroke-width="1.5"></path><path d="M-46.65 542.36L104.72 517.65" stroke="hsl(228.5, 77.2%, 51.5%)" stroke-width="1.5"></path><path d="M-46.65 542.36L-51.12 708.83" stroke="hsl(228.5, 77.2%, 51.5%)" stroke-width="1.5"></path><path d="M-46.65 542.36L103.08 693.18" stroke="hsl(228.5, 77.2%, 51.5%)" stroke-width="1.5"></path><path d="M-46.65 542.36L203.54 646.81" stroke="hsl(228.5, 77.2%, 51.5%)" stroke-width="1.5"></path><path d="M103.08 693.18L103.08 693.18" stroke="hsl(228.5, 77.2%, 51.5%)" stroke-width="1.5"></path><path d="M103.08 693.18L203.54 646.81" stroke="hsl(228.5, 77.2%, 51.5%)" stroke-width="1.5"></path><path d="M103.08 693.18L-51.12 708.83" stroke="hsl(228.5, 77.2%, 51.5%)" stroke-width="1.5"></path><path d="M103.08 693.18L104.72 517.65" stroke="hsl(228.5, 77.2%, 51.5%)" stroke-width="1.5"></path><path d="M407.37 654.71L407.37 654.71" stroke="hsl(228.5, 77.2%, 51.5%)" stroke-width="1.5"></path><path d="M407.37 654.71L338.33 559.63" stroke="hsl(228.5, 77.2%, 51.5%)" stroke-width="1.5"></path><path d="M407.37 654.71L546.46 682.88" stroke="hsl(228.5, 77.2%, 51.5%)" stroke-width="1.5"></path><path d="M407.37 654.71L203.54 646.81" stroke="hsl(228.5, 77.2%, 51.5%)" stroke-width="1.5"></path><path d="M407.37 654.71L252.44 506.29" stroke="hsl(228.5, 77.2%, 51.5%)" stroke-width="1.5"></path><path d="M659.45 679.47L659.45 679.47" stroke="hsl(228.5, 77.2%, 51.5%)" stroke-width="1.5"></path><path d="M659.45 679.47L546.46 682.88" stroke="hsl(228.5, 77.2%, 51.5%)" stroke-width="1.5"></path><path d="M659.45 679.47L659.65 544.45" stroke="hsl(228.5, 77.2%, 51.5%)" stroke-width="1.5"></path><path d="M659.45 679.47L836.34 703.09" stroke="hsl(228.5, 77.2%, 51.5%)" stroke-width="1.5"></path><path d="M852.33 560.84L852.33 560.84" stroke="hsl(228.5, 77.2%, 51.5%)" stroke-width="1.5"></path><path d="M852.33 560.84L949.24 561.26" stroke="hsl(228.5, 77.2%, 51.5%)" stroke-width="1.5"></path><path d="M852.33 560.84L836.34 703.09" stroke="hsl(228.5, 77.2%, 51.5%)" stroke-width="1.5"></path><path d="M852.33 560.84L957.77 684.11" stroke="hsl(228.5, 77.2%, 51.5%)" stroke-width="1.5"></path><path d="M852.33 560.84L945.72 397.26" stroke="hsl(228.5, 77.2%, 51.5%)" stroke-width="1.5"></path><path d="M852.33 560.84L659.65 544.45" stroke="hsl(228.5, 77.2%, 51.5%)" stroke-width="1.5"></path><path d="M852.33 560.84L659.45 679.47" stroke="hsl(228.5, 77.2%, 51.5%)" stroke-width="1.5"></path><path d="M949.24 561.26L949.24 561.26" stroke="hsl(228.5, 77.2%, 51.5%)" stroke-width="1.5"></path><path d="M949.24 561.26L957.77 684.11" stroke="hsl(228.5, 77.2%, 51.5%)" stroke-width="1.5"></path><path d="M949.24 561.26L1104.46 509.06" stroke="hsl(228.5, 77.2%, 51.5%)" stroke-width="1.5"></path><path d="M949.24 561.26L945.72 397.26" stroke="hsl(228.5, 77.2%, 51.5%)" stroke-width="1.5"></path><path d="M949.24 561.26L836.34 703.09" stroke="hsl(228.5, 77.2%, 51.5%)" stroke-width="1.5"></path><path d="M1108.31 354.16L1108.31 354.16" stroke="hsl(228.5, 77.2%, 51.5%)" stroke-width="1.5"></path><path d="M1108.31 354.16L1117.49 242.98" stroke="hsl(228.5, 77.2%, 51.5%)" stroke-width="1.5"></path><path d="M1541.05 -84.95L1541.05 -84.95" stroke="hsl(228.5, 77.2%, 51.5%)" stroke-width="1.5"></path><path d="M1541.05 -84.95L1554.98 50.92" stroke="hsl(228.5, 77.2%, 51.5%)" stroke-width="1.5"></path><path d="M1541.05 -84.95L1397.01 -69.63" stroke="hsl(228.5, 77.2%, 51.5%)" stroke-width="1.5"></path><path d="M1541.05 -84.95L1427.97 37.94" stroke="hsl(228.5, 77.2%, 51.5%)" stroke-width="1.5"></path><path d="M1541.05 -84.95L1719.49 -42.29" stroke="hsl(228.5, 77.2%, 51.5%)" stroke-width="1.5"></path><path d="M1541.05 -84.95L1296.45 -81.1" stroke="hsl(228.5, 77.2%, 51.5%)" stroke-width="1.5"></path><path d="M1554.98 50.92L1554.98 50.92" stroke="hsl(228.5, 77.2%, 51.5%)" stroke-width="1.5"></path><path d="M1554.98 50.92L1427.97 37.94" stroke="hsl(228.5, 77.2%, 51.5%)" stroke-width="1.5"></path><path d="M1554.98 50.92L1719.49 -42.29" stroke="hsl(228.5, 77.2%, 51.5%)" stroke-width="1.5"></path><path d="M1540 366.68L1540 366.68" stroke="hsl(228.5, 77.2%, 51.5%)" stroke-width="1.5"></path><path d="M1540 366.68L1558.5 258.75" stroke="hsl(228.5, 77.2%, 51.5%)" stroke-width="1.5"></path><path d="M1540 366.68L1401.5 360.76" stroke="hsl(228.5, 77.2%, 51.5%)" stroke-width="1.5"></path><path d="M-51.12 708.83L-51.12 708.83" stroke="hsl(228.5, 77.2%, 51.5%)" stroke-width="1.5"></path><path d="M104.72 517.65L104.72 517.65" stroke="hsl(228.5, 77.2%, 51.5%)" stroke-width="1.5"></path><path d="M104.72 517.65L252.44 506.29" stroke="hsl(228.5, 77.2%, 51.5%)" stroke-width="1.5"></path><path d="M104.72 517.65L203.54 646.81" stroke="hsl(228.5, 77.2%, 51.5%)" stroke-width="1.5"></path><path d="M104.72 517.65L338.33 559.63" stroke="hsl(228.5, 77.2%, 51.5%)" stroke-width="1.5"></path><path d="M252.44 506.29L252.44 506.29" stroke="hsl(228.5, 77.2%, 51.5%)" stroke-width="1.5"></path><path d="M252.44 506.29L338.33 559.63" stroke="hsl(228.5, 77.2%, 51.5%)" stroke-width="1.5"></path><path d="M252.44 506.29L203.54 646.81" stroke="hsl(228.5, 77.2%, 51.5%)" stroke-width="1.5"></path><path d="M252.44 506.29L103.08 693.18" stroke="hsl(228.5, 77.2%, 51.5%)" stroke-width="1.5"></path><path d="M252.44 506.29L545.5 490.13" stroke="hsl(228.5, 77.2%, 51.5%)" stroke-width="1.5"></path><path d="M203.54 646.81L203.54 646.81" stroke="hsl(228.5, 77.2%, 51.5%)" stroke-width="1.5"></path><path d="M338.33 559.63L338.33 559.63" stroke="hsl(228.5, 77.2%, 51.5%)" stroke-width="1.5"></path><path d="M338.33 559.63L203.54 646.81" stroke="hsl(228.5, 77.2%, 51.5%)" stroke-width="1.5"></path><path d="M338.33 559.63L545.5 490.13" stroke="hsl(228.5, 77.2%, 51.5%)" stroke-width="1.5"></path><path d="M545.5 490.13L545.5 490.13" stroke="hsl(228.5, 77.2%, 51.5%)" stroke-width="1.5"></path><path d="M545.5 490.13L659.65 544.45" stroke="hsl(228.5, 77.2%, 51.5%)" stroke-width="1.5"></path><path d="M545.5 490.13L546.46 682.88" stroke="hsl(228.5, 77.2%, 51.5%)" stroke-width="1.5"></path><path d="M545.5 490.13L407.37 654.71" stroke="hsl(228.5, 77.2%, 51.5%)" stroke-width="1.5"></path><path d="M546.46 682.88L546.46 682.88" stroke="hsl(228.5, 77.2%, 51.5%)" stroke-width="1.5"></path><path d="M546.46 682.88L659.65 544.45" stroke="hsl(228.5, 77.2%, 51.5%)" stroke-width="1.5"></path><path d="M659.65 544.45L659.65 544.45" stroke="hsl(228.5, 77.2%, 51.5%)" stroke-width="1.5"></path><path d="M836.34 703.09L836.34 703.09" stroke="hsl(228.5, 77.2%, 51.5%)" stroke-width="1.5"></path><path d="M836.34 703.09L957.77 684.11" stroke="hsl(228.5, 77.2%, 51.5%)" stroke-width="1.5"></path><path d="M945.72 397.26L945.72 397.26" stroke="hsl(228.5, 77.2%, 51.5%)" stroke-width="1.5"></path><path d="M945.72 397.26L1108.31 354.16" stroke="hsl(228.5, 77.2%, 51.5%)" stroke-width="1.5"></path><path d="M945.72 397.26L1104.46 509.06" stroke="hsl(228.5, 77.2%, 51.5%)" stroke-width="1.5"></path><path d="M945.72 397.26L1117.49 242.98" stroke="hsl(228.5, 77.2%, 51.5%)" stroke-width="1.5"></path><path d="M957.77 684.11L957.77 684.11" stroke="hsl(228.5, 77.2%, 51.5%)" stroke-width="1.5"></path><path d="M957.77 684.11L1144.27 706.03" stroke="hsl(228.5, 77.2%, 51.5%)" stroke-width="1.5"></path><path d="M957.77 684.11L1104.46 509.06" stroke="hsl(228.5, 77.2%, 51.5%)" stroke-width="1.5"></path><path d="M957.77 684.11L945.72 397.26" stroke="hsl(228.5, 77.2%, 51.5%)" stroke-width="1.5"></path><path d="M1117.49 242.98L1117.49 242.98" stroke="hsl(228.5, 77.2%, 51.5%)" stroke-width="1.5"></path><path d="M1117.49 242.98L1291.99 192.24" stroke="hsl(228.5, 77.2%, 51.5%)" stroke-width="1.5"></path><path d="M1117.49 242.98L1255.82 387.94" stroke="hsl(228.5, 77.2%, 51.5%)" stroke-width="1.5"></path><path d="M1104.46 509.06L1104.46 509.06" stroke="hsl(228.5, 77.2%, 51.5%)" stroke-width="1.5"></path><path d="M1104.46 509.06L1108.31 354.16" stroke="hsl(228.5, 77.2%, 51.5%)" stroke-width="1.5"></path><path d="M1144.27 706.03L1144.27 706.03" stroke="hsl(228.5, 77.2%, 51.5%)" stroke-width="1.5"></path><path d="M1144.27 706.03L1303.72 643.43" stroke="hsl(228.5, 77.2%, 51.5%)" stroke-width="1.5"></path><path d="M1296.45 -81.1L1296.45 -81.1" stroke="hsl(228.5, 77.2%, 51.5%)" stroke-width="1.5"></path><path d="M1296.45 -81.1L1397.01 -69.63" stroke="hsl(228.5, 77.2%, 51.5%)" stroke-width="1.5"></path><path d="M1296.45 -81.1L1427.97 37.94" stroke="hsl(228.5, 77.2%, 51.5%)" stroke-width="1.5"></path><path d="M1296.45 -81.1L1291.99 192.24" stroke="hsl(228.5, 77.2%, 51.5%)" stroke-width="1.5"></path><path d="M1296.45 -81.1L1554.98 50.92" stroke="hsl(228.5, 77.2%, 51.5%)" stroke-width="1.5"></path><path d="M1296.45 -81.1L1393.72 211.32" stroke="hsl(228.5, 77.2%, 51.5%)" stroke-width="1.5"></path><path d="M1291.99 192.24L1291.99 192.24" stroke="hsl(228.5, 77.2%, 51.5%)" stroke-width="1.5"></path><path d="M1291.99 192.24L1393.72 211.32" stroke="hsl(228.5, 77.2%, 51.5%)" stroke-width="1.5"></path><path d="M1291.99 192.24L1255.82 387.94" stroke="hsl(228.5, 77.2%, 51.5%)" stroke-width="1.5"></path><path d="M1291.99 192.24L1401.5 360.76" stroke="hsl(228.5, 77.2%, 51.5%)" stroke-width="1.5"></path><path d="M1255.82 387.94L1255.82 387.94" stroke="hsl(228.5, 77.2%, 51.5%)" stroke-width="1.5"></path><path d="M1255.82 387.94L1401.5 360.76" stroke="hsl(228.5, 77.2%, 51.5%)" stroke-width="1.5"></path><path d="M1255.82 387.94L1108.31 354.16" stroke="hsl(228.5, 77.2%, 51.5%)" stroke-width="1.5"></path><path d="M1255.82 387.94L1104.46 509.06" stroke="hsl(228.5, 77.2%, 51.5%)" stroke-width="1.5"></path><path d="M1255.82 387.94L1393.72 211.32" stroke="hsl(228.5, 77.2%, 51.5%)" stroke-width="1.5"></path><path d="M1303.72 643.43L1303.72 643.43" stroke="hsl(228.5, 77.2%, 51.5%)" stroke-width="1.5"></path><path d="M1303.72 643.43L1402.07 669.88" stroke="hsl(228.5, 77.2%, 51.5%)" stroke-width="1.5"></path><path d="M1303.72 643.43L1104.46 509.06" stroke="hsl(228.5, 77.2%, 51.5%)" stroke-width="1.5"></path><path d="M1303.72 643.43L1255.82 387.94" stroke="hsl(228.5, 77.2%, 51.5%)" stroke-width="1.5"></path><path d="M1303.72 643.43L1583.59 645.08" stroke="hsl(228.5, 77.2%, 51.5%)" stroke-width="1.5"></path><path d="M1397.01 -69.63L1397.01 -69.63" stroke="hsl(228.5, 77.2%, 51.5%)" stroke-width="1.5"></path><path d="M1397.01 -69.63L1427.97 37.94" stroke="hsl(228.5, 77.2%, 51.5%)" stroke-width="1.5"></path><path d="M1427.97 37.94L1427.97 37.94" stroke="hsl(228.5, 77.2%, 51.5%)" stroke-width="1.5"></path><path d="M1393.72 211.32L1393.72 211.32" stroke="hsl(228.5, 77.2%, 51.5%)" stroke-width="1.5"></path><path d="M1393.72 211.32L1401.5 360.76" stroke="hsl(228.5, 77.2%, 51.5%)" stroke-width="1.5"></path><path d="M1393.72 211.32L1558.5 258.75" stroke="hsl(228.5, 77.2%, 51.5%)" stroke-width="1.5"></path><path d="M1401.5 360.76L1401.5 360.76" stroke="hsl(228.5, 77.2%, 51.5%)" stroke-width="1.5"></path><path d="M1401.5 360.76L1558.5 258.75" stroke="hsl(228.5, 77.2%, 51.5%)" stroke-width="1.5"></path><path d="M1402.07 669.88L1402.07 669.88" stroke="hsl(228.5, 77.2%, 51.5%)" stroke-width="1.5"></path><path d="M1402.07 669.88L1583.59 645.08" stroke="hsl(228.5, 77.2%, 51.5%)" stroke-width="1.5"></path><path d="M1402.07 669.88L1603.98 529.35" stroke="hsl(228.5, 77.2%, 51.5%)" stroke-width="1.5"></path><path d="M1558.5 258.75L1558.5 258.75" stroke="hsl(228.5, 77.2%, 51.5%)" stroke-width="1.5"></path><path d="M1558.5 258.75L1726.22 379.39" stroke="hsl(228.5, 77.2%, 51.5%)" stroke-width="1.5"></path><path d="M1558.5 258.75L1554.98 50.92" stroke="hsl(228.5, 77.2%, 51.5%)" stroke-width="1.5"></path><path d="M1603.98 529.35L1603.98 529.35" stroke="hsl(228.5, 77.2%, 51.5%)" stroke-width="1.5"></path><path d="M1603.98 529.35L1583.59 645.08" stroke="hsl(228.5, 77.2%, 51.5%)" stroke-width="1.5"></path><path d="M1603.98 529.35L1761.96 490.56" stroke="hsl(228.5, 77.2%, 51.5%)" stroke-width="1.5"></path><path d="M1603.98 529.35L1540 366.68" stroke="hsl(228.5, 77.2%, 51.5%)" stroke-width="1.5"></path><path d="M1603.98 529.35L1726.22 379.39" stroke="hsl(228.5, 77.2%, 51.5%)" stroke-width="1.5"></path><path d="M1603.98 529.35L1401.5 360.76" stroke="hsl(228.5, 77.2%, 51.5%)" stroke-width="1.5"></path><path d="M1583.59 645.08L1583.59 645.08" stroke="hsl(228.5, 77.2%, 51.5%)" stroke-width="1.5"></path><path d="M1583.59 645.08L1761.96 490.56" stroke="hsl(228.5, 77.2%, 51.5%)" stroke-width="1.5"></path><path d="M1719.49 -42.29L1719.49 -42.29" stroke="hsl(228.5, 77.2%, 51.5%)" stroke-width="1.5"></path><path d="M1719.49 -42.29L1427.97 37.94" stroke="hsl(228.5, 77.2%, 51.5%)" stroke-width="1.5"></path><path d="M1719.49 -42.29L1397.01 -69.63" stroke="hsl(228.5, 77.2%, 51.5%)" stroke-width="1.5"></path><path d="M1726.22 379.39L1726.22 379.39" stroke="hsl(228.5, 77.2%, 51.5%)" stroke-width="1.5"></path><path d="M1726.22 379.39L1761.96 490.56" stroke="hsl(228.5, 77.2%, 51.5%)" stroke-width="1.5"></path><path d="M1726.22 379.39L1540 366.68" stroke="hsl(228.5, 77.2%, 51.5%)" stroke-width="1.5"></path><path d="M1761.96 490.56L1761.96 490.56" stroke="hsl(228.5, 77.2%, 51.5%)" stroke-width="1.5"></path><path d="M1761.96 490.56L1540 366.68" stroke="hsl(228.5, 77.2%, 51.5%)" stroke-width="1.5"></path><path d="M1761.96 490.56L1558.5 258.75" stroke="hsl(228.5, 77.2%, 51.5%)" stroke-width="1.5"></path><path d="M1761.96 490.56L1401.5 360.76" stroke="hsl(228.5, 77.2%, 51.5%)" stroke-width="1.5"></path><circle r="25" cx="-46.65" cy="542.36" fill="url(&quot;#SvgjsRadialGradient2599&quot;)"></circle><circle r="25" cx="103.08" cy="693.18" fill="url(&quot;#SvgjsRadialGradient2599&quot;)"></circle><circle r="25" cx="407.37" cy="654.71" fill="url(&quot;#SvgjsRadialGradient2599&quot;)"></circle><circle r="25" cx="659.45" cy="679.47" fill="url(&quot;#SvgjsRadialGradient2599&quot;)"></circle><circle r="25" cx="852.33" cy="560.84" fill="url(&quot;#SvgjsRadialGradient2599&quot;)"></circle><circle r="25" cx="949.24" cy="561.26" fill="url(&quot;#SvgjsRadialGradient2599&quot;)"></circle><circle r="25" cx="1108.31" cy="354.16" fill="url(&quot;#SvgjsRadialGradient2599&quot;)"></circle><circle r="25" cx="1541.05" cy="-84.95" fill="url(&quot;#SvgjsRadialGradient2599&quot;)"></circle><circle r="25" cx="1554.98" cy="50.92" fill="url(&quot;#SvgjsRadialGradient2599&quot;)"></circle><circle r="25" cx="1540" cy="366.68" fill="url(&quot;#SvgjsRadialGradient2599&quot;)"></circle><circle r="5" cx="-51.12" cy="708.83" fill="#8b9ad9"></circle><circle r="5" cx="104.72" cy="517.65" fill="#8b9ad9"></circle><circle r="5" cx="252.44" cy="506.29" fill="#8b9ad9"></circle><circle r="5" cx="203.54" cy="646.81" fill="#8b9ad9"></circle><circle r="5" cx="338.33" cy="559.63" fill="#8b9ad9"></circle><circle r="5" cx="545.5" cy="490.13" fill="#8b9ad9"></circle><circle r="5" cx="546.46" cy="682.88" fill="#8b9ad9"></circle><circle r="5" cx="659.65" cy="544.45" fill="#8b9ad9"></circle><circle r="5" cx="836.34" cy="703.09" fill="#8b9ad9"></circle><circle r="5" cx="945.72" cy="397.26" fill="#8b9ad9"></circle><circle r="5" cx="957.77" cy="684.11" fill="#8b9ad9"></circle><circle r="5" cx="1117.49" cy="242.98" fill="#8b9ad9"></circle><circle r="5" cx="1104.46" cy="509.06" fill="#8b9ad9"></circle><circle r="5" cx="1144.27" cy="706.03" fill="#8b9ad9"></circle><circle r="5" cx="1296.45" cy="-81.1" fill="#8b9ad9"></circle><circle r="5" cx="1291.99" cy="192.24" fill="#8b9ad9"></circle><circle r="5" cx="1255.82" cy="387.94" fill="#8b9ad9"></circle><circle r="5" cx="1303.72" cy="643.43" fill="#8b9ad9"></circle><circle r="5" cx="1397.01" cy="-69.63" fill="#8b9ad9"></circle><circle r="5" cx="1427.97" cy="37.94" fill="#8b9ad9"></circle><circle r="5" cx="1393.72" cy="211.32" fill="#8b9ad9"></circle><circle r="5" cx="1401.5" cy="360.76" fill="#8b9ad9"></circle><circle r="5" cx="1402.07" cy="669.88" fill="#8b9ad9"></circle><circle r="5" cx="1558.5" cy="258.75" fill="#8b9ad9"></circle><circle r="5" cx="1603.98" cy="529.35" fill="#8b9ad9"></circle><circle r="5" cx="1583.59" cy="645.08" fill="#8b9ad9"></circle><circle r="5" cx="1719.49" cy="-42.29" fill="#8b9ad9"></circle><circle r="5" cx="1726.22" cy="379.39" fill="#8b9ad9"></circle><circle r="5" cx="1761.96" cy="490.56" fill="#8b9ad9"></circle></g><defs><mask id="SvgjsMask2597"><rect width="1600" height="580" fill="#ffffff"></rect></mask><linearGradient x1="15.94%" y1="143.97%" x2="84.06%" y2="-43.97%" gradientUnits="userSpaceOnUse" id="SvgjsLinearGradient2598"><stop stop-color="#0e2a47" offset="0"></stop><stop stop-color="rgba(20, 29, 41, 1)" offset="1"></stop></linearGradient><radialGradient id="SvgjsRadialGradient2599"><stop stop-color="#ffffff" offset="0.1"></stop><stop stop-color="#1735b3" offset="0.2"></stop><stop stop-color="rgba(23, 53, 179, 0)" offset="1"></stop></radialGradient></defs></svg>