<svg xmlns="http://www.w3.org/2000/svg" version="1.1" xmlns:xlink="http://www.w3.org/1999/xlink" xmlns:svgjs="http://svgjs.dev/svgjs" width="1440" height="560" preserveAspectRatio="none" viewBox="0 0 1440 560"><g mask="url(&quot;#SvgjsMask2429&quot;)" fill="none"><rect width="1440" height="560" x="0" y="0" fill="url(&quot;#SvgjsLinearGradient2430&quot;)"></rect><path d="M-61.04 398.15L-61.04 398.15" stroke="#132e65" stroke-width="1.5"></path><path d="M-61.04 398.15L-108.5 514.85" stroke="#132e65" stroke-width="1.5"></path><path d="M-61.04 398.15L105.42 338.67" stroke="#132e65" stroke-width="1.5"></path><path d="M-61.04 398.15L75.41 515.41" stroke="#132e65" stroke-width="1.5"></path><path d="M-108.5 514.85L-108.5 514.85" stroke="#132e65" stroke-width="1.5"></path><path d="M-108.5 514.85L75.41 515.41" stroke="#132e65" stroke-width="1.5"></path><path d="M-108.5 514.85L-44.67 705.51" stroke="#132e65" stroke-width="1.5"></path><path d="M-44.67 705.51L-44.67 705.51" stroke="#132e65" stroke-width="1.5"></path><path d="M-44.67 705.51L67.72 638.94" stroke="#132e65" stroke-width="1.5"></path><path d="M-44.67 705.51L75.41 515.41" stroke="#132e65" stroke-width="1.5"></path><path d="M-44.67 705.51L237.36 652.2" stroke="#132e65" stroke-width="1.5"></path><path d="M-44.67 705.51L-61.04 398.15" stroke="#132e65" stroke-width="1.5"></path><path d="M-44.67 705.51L234.66 500.87" stroke="#132e65" stroke-width="1.5"></path><path d="M105.42 338.67L105.42 338.67" stroke="#132e65" stroke-width="1.5"></path><path d="M105.42 338.67L240.09 398.92" stroke="#132e65" stroke-width="1.5"></path><path d="M105.42 338.67L75.41 515.41" stroke="#132e65" stroke-width="1.5"></path><path d="M105.42 338.67L234.66 500.87" stroke="#132e65" stroke-width="1.5"></path><path d="M75.41 515.41L75.41 515.41" stroke="#132e65" stroke-width="1.5"></path><path d="M75.41 515.41L67.72 638.94" stroke="#132e65" stroke-width="1.5"></path><path d="M75.41 515.41L234.66 500.87" stroke="#132e65" stroke-width="1.5"></path><path d="M67.72 638.94L67.72 638.94" stroke="#132e65" stroke-width="1.5"></path><path d="M67.72 638.94L237.36 652.2" stroke="#132e65" stroke-width="1.5"></path><path d="M67.72 638.94L-108.5 514.85" stroke="#132e65" stroke-width="1.5"></path><path d="M67.72 638.94L234.66 500.87" stroke="#132e65" stroke-width="1.5"></path><path d="M67.72 638.94L-61.04 398.15" stroke="#132e65" stroke-width="1.5"></path><path d="M240.09 398.92L240.09 398.92" stroke="#132e65" stroke-width="1.5"></path><path d="M240.09 398.92L234.66 500.87" stroke="#132e65" stroke-width="1.5"></path><path d="M240.09 398.92L365.17 382.81" stroke="#132e65" stroke-width="1.5"></path><path d="M234.66 500.87L234.66 500.87" stroke="#132e65" stroke-width="1.5"></path><path d="M234.66 500.87L237.36 652.2" stroke="#132e65" stroke-width="1.5"></path><path d="M237.36 652.2L237.36 652.2" stroke="#132e65" stroke-width="1.5"></path><path d="M237.36 652.2L361.91 688.81" stroke="#132e65" stroke-width="1.5"></path><path d="M237.36 652.2L75.41 515.41" stroke="#132e65" stroke-width="1.5"></path><path d="M237.36 652.2L387.45 500.13" stroke="#132e65" stroke-width="1.5"></path><path d="M237.36 652.2L240.09 398.92" stroke="#132e65" stroke-width="1.5"></path><path d="M365.17 382.81L365.17 382.81" stroke="#132e65" stroke-width="1.5"></path><path d="M365.17 382.81L387.45 500.13" stroke="#132e65" stroke-width="1.5"></path><path d="M365.17 382.81L504.32 395.2" stroke="#132e65" stroke-width="1.5"></path><path d="M387.45 500.13L387.45 500.13" stroke="#132e65" stroke-width="1.5"></path><path d="M387.45 500.13L514.42 530.22" stroke="#132e65" stroke-width="1.5"></path><path d="M387.45 500.13L234.66 500.87" stroke="#132e65" stroke-width="1.5"></path><path d="M361.91 688.81L361.91 688.81" stroke="#132e65" stroke-width="1.5"></path><path d="M361.91 688.81L387.45 500.13" stroke="#132e65" stroke-width="1.5"></path><path d="M504.32 395.2L504.32 395.2" stroke="#132e65" stroke-width="1.5"></path><path d="M504.32 395.2L514.42 530.22" stroke="#132e65" stroke-width="1.5"></path><path d="M504.32 395.2L387.45 500.13" stroke="#132e65" stroke-width="1.5"></path><path d="M514.42 530.22L514.42 530.22" stroke="#132e65" stroke-width="1.5"></path><path d="M681.66 230.47L681.66 230.47" stroke="#132e65" stroke-width="1.5"></path><path d="M681.66 230.47L804.63 212.93" stroke="#132e65" stroke-width="1.5"></path><path d="M681.66 230.47L663.94 407.75" stroke="#132e65" stroke-width="1.5"></path><path d="M663.94 407.75L663.94 407.75" stroke="#132e65" stroke-width="1.5"></path><path d="M663.94 407.75L682.93 539.33" stroke="#132e65" stroke-width="1.5"></path><path d="M663.94 407.75L504.32 395.2" stroke="#132e65" stroke-width="1.5"></path><path d="M663.94 407.75L830.77 361.32" stroke="#132e65" stroke-width="1.5"></path><path d="M682.93 539.33L682.93 539.33" stroke="#132e65" stroke-width="1.5"></path><path d="M682.93 539.33L647.16 656.23" stroke="#132e65" stroke-width="1.5"></path><path d="M682.93 539.33L514.42 530.22" stroke="#132e65" stroke-width="1.5"></path><path d="M647.16 656.23L647.16 656.23" stroke="#132e65" stroke-width="1.5"></path><path d="M647.16 656.23L514.42 530.22" stroke="#132e65" stroke-width="1.5"></path><path d="M647.16 656.23L858.79 641.66" stroke="#132e65" stroke-width="1.5"></path><path d="M647.16 656.23L859.82 554.54" stroke="#132e65" stroke-width="1.5"></path><path d="M804.63 212.93L804.63 212.93" stroke="#132e65" stroke-width="1.5"></path><path d="M804.63 212.93L938.28 233.29" stroke="#132e65" stroke-width="1.5"></path><path d="M804.63 212.93L830.77 361.32" stroke="#132e65" stroke-width="1.5"></path><path d="M804.63 212.93L939.98 112.5" stroke="#132e65" stroke-width="1.5"></path><path d="M830.77 361.32L830.77 361.32" stroke="#132e65" stroke-width="1.5"></path><path d="M830.77 361.32L988.49 358.99" stroke="#132e65" stroke-width="1.5"></path><path d="M830.77 361.32L938.28 233.29" stroke="#132e65" stroke-width="1.5"></path><path d="M859.82 554.54L859.82 554.54" stroke="#132e65" stroke-width="1.5"></path><path d="M859.82 554.54L858.79 641.66" stroke="#132e65" stroke-width="1.5"></path><path d="M859.82 554.54L973.33 544.89" stroke="#132e65" stroke-width="1.5"></path><path d="M859.82 554.54L945.45 688.68" stroke="#132e65" stroke-width="1.5"></path><path d="M858.79 641.66L858.79 641.66" stroke="#132e65" stroke-width="1.5"></path><path d="M858.79 641.66L945.45 688.68" stroke="#132e65" stroke-width="1.5"></path><path d="M858.79 641.66L973.33 544.89" stroke="#132e65" stroke-width="1.5"></path><path d="M858.79 641.66L682.93 539.33" stroke="#132e65" stroke-width="1.5"></path><path d="M858.79 641.66L830.77 361.32" stroke="#132e65" stroke-width="1.5"></path><path d="M963.92 -70.11L963.92 -70.11" stroke="#132e65" stroke-width="1.5"></path><path d="M963.92 -70.11L939.98 112.5" stroke="#132e65" stroke-width="1.5"></path><path d="M963.92 -70.11L1248.16 -48.62" stroke="#132e65" stroke-width="1.5"></path><path d="M963.92 -70.11L1112.19 195.75" stroke="#132e65" stroke-width="1.5"></path><path d="M963.92 -70.11L938.28 233.29" stroke="#132e65" stroke-width="1.5"></path><path d="M963.92 -70.11L804.63 212.93" stroke="#132e65" stroke-width="1.5"></path><path d="M939.98 112.5L939.98 112.5" stroke="#132e65" stroke-width="1.5"></path><path d="M939.98 112.5L938.28 233.29" stroke="#132e65" stroke-width="1.5"></path><path d="M939.98 112.5L1112.19 195.75" stroke="#132e65" stroke-width="1.5"></path><path d="M939.98 112.5L988.49 358.99" stroke="#132e65" stroke-width="1.5"></path><path d="M939.98 112.5L830.77 361.32" stroke="#132e65" stroke-width="1.5"></path><path d="M938.28 233.29L938.28 233.29" stroke="#132e65" stroke-width="1.5"></path><path d="M988.49 358.99L988.49 358.99" stroke="#132e65" stroke-width="1.5"></path><path d="M988.49 358.99L938.28 233.29" stroke="#132e65" stroke-width="1.5"></path><path d="M988.49 358.99L973.33 544.89" stroke="#132e65" stroke-width="1.5"></path><path d="M988.49 358.99L1112.19 195.75" stroke="#132e65" stroke-width="1.5"></path><path d="M988.49 358.99L859.82 554.54" stroke="#132e65" stroke-width="1.5"></path><path d="M973.33 544.89L973.33 544.89" stroke="#132e65" stroke-width="1.5"></path><path d="M973.33 544.89L945.45 688.68" stroke="#132e65" stroke-width="1.5"></path><path d="M973.33 544.89L1136.7 560.41" stroke="#132e65" stroke-width="1.5"></path><path d="M973.33 544.89L1157.16 661.97" stroke="#132e65" stroke-width="1.5"></path><path d="M945.45 688.68L945.45 688.68" stroke="#132e65" stroke-width="1.5"></path><path d="M1112.19 195.75L1112.19 195.75" stroke="#132e65" stroke-width="1.5"></path><path d="M1112.19 195.75L1238.7 195.17" stroke="#132e65" stroke-width="1.5"></path><path d="M1112.19 195.75L938.28 233.29" stroke="#132e65" stroke-width="1.5"></path><path d="M1136.7 560.41L1136.7 560.41" stroke="#132e65" stroke-width="1.5"></path><path d="M1136.7 560.41L1157.16 661.97" stroke="#132e65" stroke-width="1.5"></path><path d="M1136.7 560.41L1268.95 508.03" stroke="#132e65" stroke-width="1.5"></path><path d="M1136.7 560.41L1299.91 663.65" stroke="#132e65" stroke-width="1.5"></path><path d="M1136.7 560.41L945.45 688.68" stroke="#132e65" stroke-width="1.5"></path><path d="M1136.7 560.41L1248.25 344.54" stroke="#132e65" stroke-width="1.5"></path><path d="M1157.16 661.97L1157.16 661.97" stroke="#132e65" stroke-width="1.5"></path><path d="M1157.16 661.97L1299.91 663.65" stroke="#132e65" stroke-width="1.5"></path><path d="M1157.16 661.97L1268.95 508.03" stroke="#132e65" stroke-width="1.5"></path><path d="M1248.16 -48.62L1248.16 -48.62" stroke="#132e65" stroke-width="1.5"></path><path d="M1248.16 -48.62L1453.41 -43.85" stroke="#132e65" stroke-width="1.5"></path><path d="M1248.16 -48.62L1410.32 105.38" stroke="#132e65" stroke-width="1.5"></path><path d="M1248.16 -48.62L1238.7 195.17" stroke="#132e65" stroke-width="1.5"></path><path d="M1248.16 -48.62L1112.19 195.75" stroke="#132e65" stroke-width="1.5"></path><path d="M1238.7 195.17L1238.7 195.17" stroke="#132e65" stroke-width="1.5"></path><path d="M1238.7 195.17L1248.25 344.54" stroke="#132e65" stroke-width="1.5"></path><path d="M1248.25 344.54L1248.25 344.54" stroke="#132e65" stroke-width="1.5"></path><path d="M1248.25 344.54L1393.9 366.46" stroke="#132e65" stroke-width="1.5"></path><path d="M1248.25 344.54L1268.95 508.03" stroke="#132e65" stroke-width="1.5"></path><path d="M1248.25 344.54L1405.13 250.23" stroke="#132e65" stroke-width="1.5"></path><path d="M1248.25 344.54L1112.19 195.75" stroke="#132e65" stroke-width="1.5"></path><path d="M1268.95 508.03L1268.95 508.03" stroke="#132e65" stroke-width="1.5"></path><path d="M1268.95 508.03L1299.91 663.65" stroke="#132e65" stroke-width="1.5"></path><path d="M1299.91 663.65L1299.91 663.65" stroke="#132e65" stroke-width="1.5"></path><path d="M1299.91 663.65L1415.97 673.92" stroke="#132e65" stroke-width="1.5"></path><path d="M1453.41 -43.85L1453.41 -43.85" stroke="#132e65" stroke-width="1.5"></path><path d="M1453.41 -43.85L1545.94 40.17" stroke="#132e65" stroke-width="1.5"></path><path d="M1453.41 -43.85L1582.76 -83.07" stroke="#132e65" stroke-width="1.5"></path><path d="M1453.41 -43.85L1410.32 105.38" stroke="#132e65" stroke-width="1.5"></path><path d="M1410.32 105.38L1410.32 105.38" stroke="#132e65" stroke-width="1.5"></path><path d="M1410.32 105.38L1405.13 250.23" stroke="#132e65" stroke-width="1.5"></path><path d="M1410.32 105.38L1545.94 40.17" stroke="#132e65" stroke-width="1.5"></path><path d="M1410.32 105.38L1554.98 202.27" stroke="#132e65" stroke-width="1.5"></path><path d="M1410.32 105.38L1238.7 195.17" stroke="#132e65" stroke-width="1.5"></path><path d="M1405.13 250.23L1405.13 250.23" stroke="#132e65" stroke-width="1.5"></path><path d="M1405.13 250.23L1393.9 366.46" stroke="#132e65" stroke-width="1.5"></path><path d="M1405.13 250.23L1554.98 202.27" stroke="#132e65" stroke-width="1.5"></path><path d="M1405.13 250.23L1238.7 195.17" stroke="#132e65" stroke-width="1.5"></path><path d="M1393.9 366.46L1393.9 366.46" stroke="#132e65" stroke-width="1.5"></path><path d="M1393.9 366.46L1548.38 376.35" stroke="#132e65" stroke-width="1.5"></path><path d="M1415.97 673.92L1415.97 673.92" stroke="#132e65" stroke-width="1.5"></path><path d="M1415.97 673.92L1575.22 654.44" stroke="#132e65" stroke-width="1.5"></path><path d="M1415.97 673.92L1589.17 549.63" stroke="#132e65" stroke-width="1.5"></path><path d="M1415.97 673.92L1268.95 508.03" stroke="#132e65" stroke-width="1.5"></path><path d="M1582.76 -83.07L1582.76 -83.07" stroke="#132e65" stroke-width="1.5"></path><path d="M1582.76 -83.07L1545.94 40.17" stroke="#132e65" stroke-width="1.5"></path><path d="M1582.76 -83.07L1410.32 105.38" stroke="#132e65" stroke-width="1.5"></path><path d="M1582.76 -83.07L1554.98 202.27" stroke="#132e65" stroke-width="1.5"></path><path d="M1545.94 40.17L1545.94 40.17" stroke="#132e65" stroke-width="1.5"></path><path d="M1554.98 202.27L1554.98 202.27" stroke="#132e65" stroke-width="1.5"></path><path d="M1554.98 202.27L1545.94 40.17" stroke="#132e65" stroke-width="1.5"></path><path d="M1554.98 202.27L1548.38 376.35" stroke="#132e65" stroke-width="1.5"></path><path d="M1554.98 202.27L1393.9 366.46" stroke="#132e65" stroke-width="1.5"></path><path d="M1554.98 202.27L1453.41 -43.85" stroke="#132e65" stroke-width="1.5"></path><path d="M1548.38 376.35L1548.38 376.35" stroke="#132e65" stroke-width="1.5"></path><path d="M1548.38 376.35L1589.17 549.63" stroke="#132e65" stroke-width="1.5"></path><path d="M1589.17 549.63L1589.17 549.63" stroke="#132e65" stroke-width="1.5"></path><path d="M1589.17 549.63L1575.22 654.44" stroke="#132e65" stroke-width="1.5"></path><path d="M1575.22 654.44L1575.22 654.44" stroke="#132e65" stroke-width="1.5"></path><path d="M1575.22 654.44L1299.91 663.65" stroke="#132e65" stroke-width="1.5"></path><circle r="5" cx="-61.04" cy="398.15" fill="#132e65"></circle><circle r="5" cx="-108.5" cy="514.85" fill="#132e65"></circle><circle r="5" cx="-44.67" cy="705.51" fill="#132e65"></circle><circle r="5" cx="105.42" cy="338.67" fill="#132e65"></circle><circle r="5" cx="75.41" cy="515.41" fill="#132e65"></circle><circle r="5" cx="67.72" cy="638.94" fill="#132e65"></circle><circle r="5" cx="240.09" cy="398.92" fill="#132e65"></circle><circle r="5" cx="234.66" cy="500.87" fill="#132e65"></circle><circle r="5" cx="237.36" cy="652.2" fill="#132e65"></circle><circle r="5" cx="365.17" cy="382.81" fill="#132e65"></circle><circle r="5" cx="387.45" cy="500.13" fill="#132e65"></circle><circle r="5" cx="361.91" cy="688.81" fill="#132e65"></circle><circle r="5" cx="504.32" cy="395.2" fill="#132e65"></circle><circle r="5" cx="514.42" cy="530.22" fill="#132e65"></circle><circle r="5" cx="681.66" cy="230.47" fill="#132e65"></circle><circle r="5" cx="663.94" cy="407.75" fill="#132e65"></circle><circle r="5" cx="682.93" cy="539.33" fill="#132e65"></circle><circle r="5" cx="647.16" cy="656.23" fill="#132e65"></circle><circle r="5" cx="804.63" cy="212.93" fill="#132e65"></circle><circle r="5" cx="830.77" cy="361.32" fill="#132e65"></circle><circle r="5" cx="859.82" cy="554.54" fill="#132e65"></circle><circle r="5" cx="858.79" cy="641.66" fill="#132e65"></circle><circle r="5" cx="963.92" cy="-70.11" fill="#132e65"></circle><circle r="5" cx="939.98" cy="112.5" fill="#132e65"></circle><circle r="5" cx="938.28" cy="233.29" fill="#132e65"></circle><circle r="5" cx="988.49" cy="358.99" fill="#132e65"></circle><circle r="5" cx="973.33" cy="544.89" fill="#132e65"></circle><circle r="5" cx="945.45" cy="688.68" fill="#132e65"></circle><circle r="5" cx="1112.19" cy="195.75" fill="#132e65"></circle><circle r="5" cx="1136.7" cy="560.41" fill="#132e65"></circle><circle r="5" cx="1157.16" cy="661.97" fill="#132e65"></circle><circle r="5" cx="1248.16" cy="-48.62" fill="#132e65"></circle><circle r="5" cx="1238.7" cy="195.17" fill="#132e65"></circle><circle r="5" cx="1248.25" cy="344.54" fill="#132e65"></circle><circle r="5" cx="1268.95" cy="508.03" fill="#132e65"></circle><circle r="5" cx="1299.91" cy="663.65" fill="#132e65"></circle><circle r="5" cx="1453.41" cy="-43.85" fill="#132e65"></circle><circle r="5" cx="1410.32" cy="105.38" fill="#132e65"></circle><circle r="5" cx="1405.13" cy="250.23" fill="#132e65"></circle><circle r="5" cx="1393.9" cy="366.46" fill="#132e65"></circle><circle r="5" cx="1415.97" cy="673.92" fill="#132e65"></circle><circle r="5" cx="1582.76" cy="-83.07" fill="#132e65"></circle><circle r="5" cx="1545.94" cy="40.17" fill="#132e65"></circle><circle r="5" cx="1554.98" cy="202.27" fill="#132e65"></circle><circle r="5" cx="1548.38" cy="376.35" fill="#132e65"></circle><circle r="5" cx="1589.17" cy="549.63" fill="#132e65"></circle><circle r="5" cx="1575.22" cy="654.44" fill="#132e65"></circle><path d="M-57.96 675.17L-57.96 675.17" stroke="hsl(228.5, 77.2%, 51.5%)" stroke-width="1.5"></path><path d="M-57.96 675.17L101.82 673.18" stroke="hsl(228.5, 77.2%, 51.5%)" stroke-width="1.5"></path><path d="M-57.96 675.17L-103.22 511.73" stroke="hsl(228.5, 77.2%, 51.5%)" stroke-width="1.5"></path><path d="M-57.96 675.17L45.02 512.29" stroke="hsl(228.5, 77.2%, 51.5%)" stroke-width="1.5"></path><path d="M-57.96 675.17L208.99 664.06" stroke="hsl(228.5, 77.2%, 51.5%)" stroke-width="1.5"></path><path d="M343.16 493.77L343.16 493.77" stroke="hsl(228.5, 77.2%, 51.5%)" stroke-width="1.5"></path><path d="M343.16 493.77L223.06 518.66" stroke="hsl(228.5, 77.2%, 51.5%)" stroke-width="1.5"></path><path d="M343.16 493.77L505.38 534.09" stroke="hsl(228.5, 77.2%, 51.5%)" stroke-width="1.5"></path><path d="M1265.83 233.46L1265.83 233.46" stroke="hsl(228.5, 77.2%, 51.5%)" stroke-width="1.5"></path><path d="M1265.83 233.46L1138.76 217.09" stroke="hsl(228.5, 77.2%, 51.5%)" stroke-width="1.5"></path><path d="M1265.83 233.46L1240.51 107.53" stroke="hsl(228.5, 77.2%, 51.5%)" stroke-width="1.5"></path><path d="M1265.83 233.46L1252.63 385.88" stroke="hsl(228.5, 77.2%, 51.5%)" stroke-width="1.5"></path><path d="M1265.83 233.46L1437.71 221.02" stroke="hsl(228.5, 77.2%, 51.5%)" stroke-width="1.5"></path><path d="M1265.83 233.46L1398.51 96.45" stroke="hsl(228.5, 77.2%, 51.5%)" stroke-width="1.5"></path><path d="M1257.83 652.02L1257.83 652.02" stroke="hsl(228.5, 77.2%, 51.5%)" stroke-width="1.5"></path><path d="M1257.83 652.02L1151.6 700.69" stroke="hsl(228.5, 77.2%, 51.5%)" stroke-width="1.5"></path><path d="M1414.21 516.74L1414.21 516.74" stroke="hsl(228.5, 77.2%, 51.5%)" stroke-width="1.5"></path><path d="M1414.21 516.74L1285.48 528.71" stroke="hsl(228.5, 77.2%, 51.5%)" stroke-width="1.5"></path><path d="M1414.21 516.74L1391.98 379.55" stroke="hsl(228.5, 77.2%, 51.5%)" stroke-width="1.5"></path><path d="M1414.21 516.74L1396.81 659.31" stroke="hsl(228.5, 77.2%, 51.5%)" stroke-width="1.5"></path><path d="M1414.21 516.74L1597.03 542.39" stroke="hsl(228.5, 77.2%, 51.5%)" stroke-width="1.5"></path><path d="M1414.21 516.74L1588.06 408.54" stroke="hsl(228.5, 77.2%, 51.5%)" stroke-width="1.5"></path><path d="M1414.21 516.74L1257.83 652.02" stroke="hsl(228.5, 77.2%, 51.5%)" stroke-width="1.5"></path><path d="M1588.06 408.54L1588.06 408.54" stroke="hsl(228.5, 77.2%, 51.5%)" stroke-width="1.5"></path><path d="M1588.06 408.54L1597.03 542.39" stroke="hsl(228.5, 77.2%, 51.5%)" stroke-width="1.5"></path><path d="M1588.06 408.54L1391.98 379.55" stroke="hsl(228.5, 77.2%, 51.5%)" stroke-width="1.5"></path><path d="M1588.06 408.54L1437.71 221.02" stroke="hsl(228.5, 77.2%, 51.5%)" stroke-width="1.5"></path><path d="M-103.22 511.73L-103.22 511.73" stroke="hsl(228.5, 77.2%, 51.5%)" stroke-width="1.5"></path><path d="M-103.22 511.73L45.02 512.29" stroke="hsl(228.5, 77.2%, 51.5%)" stroke-width="1.5"></path><path d="M-103.22 511.73L101.82 673.18" stroke="hsl(228.5, 77.2%, 51.5%)" stroke-width="1.5"></path><path d="M45.02 512.29L45.02 512.29" stroke="hsl(228.5, 77.2%, 51.5%)" stroke-width="1.5"></path><path d="M45.02 512.29L101.82 673.18" stroke="hsl(228.5, 77.2%, 51.5%)" stroke-width="1.5"></path><path d="M45.02 512.29L223.06 518.66" stroke="hsl(228.5, 77.2%, 51.5%)" stroke-width="1.5"></path><path d="M45.02 512.29L208.99 664.06" stroke="hsl(228.5, 77.2%, 51.5%)" stroke-width="1.5"></path><path d="M101.82 673.18L101.82 673.18" stroke="hsl(228.5, 77.2%, 51.5%)" stroke-width="1.5"></path><path d="M101.82 673.18L208.99 664.06" stroke="hsl(228.5, 77.2%, 51.5%)" stroke-width="1.5"></path><path d="M101.82 673.18L223.06 518.66" stroke="hsl(228.5, 77.2%, 51.5%)" stroke-width="1.5"></path><path d="M223.06 518.66L223.06 518.66" stroke="hsl(228.5, 77.2%, 51.5%)" stroke-width="1.5"></path><path d="M223.06 518.66L208.99 664.06" stroke="hsl(228.5, 77.2%, 51.5%)" stroke-width="1.5"></path><path d="M223.06 518.66L355.42 694.6" stroke="hsl(228.5, 77.2%, 51.5%)" stroke-width="1.5"></path><path d="M223.06 518.66L505.38 534.09" stroke="hsl(228.5, 77.2%, 51.5%)" stroke-width="1.5"></path><path d="M208.99 664.06L208.99 664.06" stroke="hsl(228.5, 77.2%, 51.5%)" stroke-width="1.5"></path><path d="M208.99 664.06L355.42 694.6" stroke="hsl(228.5, 77.2%, 51.5%)" stroke-width="1.5"></path><path d="M208.99 664.06L343.16 493.77" stroke="hsl(228.5, 77.2%, 51.5%)" stroke-width="1.5"></path><path d="M355.42 694.6L355.42 694.6" stroke="hsl(228.5, 77.2%, 51.5%)" stroke-width="1.5"></path><path d="M355.42 694.6L517.94 679.7" stroke="hsl(228.5, 77.2%, 51.5%)" stroke-width="1.5"></path><path d="M355.42 694.6L343.16 493.77" stroke="hsl(228.5, 77.2%, 51.5%)" stroke-width="1.5"></path><path d="M355.42 694.6L505.38 534.09" stroke="hsl(228.5, 77.2%, 51.5%)" stroke-width="1.5"></path><path d="M355.42 694.6L101.82 673.18" stroke="hsl(228.5, 77.2%, 51.5%)" stroke-width="1.5"></path><path d="M505.38 534.09L505.38 534.09" stroke="hsl(228.5, 77.2%, 51.5%)" stroke-width="1.5"></path><path d="M505.38 534.09L517.94 679.7" stroke="hsl(228.5, 77.2%, 51.5%)" stroke-width="1.5"></path><path d="M505.38 534.09L654.06 535.55" stroke="hsl(228.5, 77.2%, 51.5%)" stroke-width="1.5"></path><path d="M517.94 679.7L517.94 679.7" stroke="hsl(228.5, 77.2%, 51.5%)" stroke-width="1.5"></path><path d="M517.94 679.7L654.06 535.55" stroke="hsl(228.5, 77.2%, 51.5%)" stroke-width="1.5"></path><path d="M517.94 679.7L343.16 493.77" stroke="hsl(228.5, 77.2%, 51.5%)" stroke-width="1.5"></path><path d="M517.94 679.7L789.73 652.01" stroke="hsl(228.5, 77.2%, 51.5%)" stroke-width="1.5"></path><path d="M517.94 679.7L208.99 664.06" stroke="hsl(228.5, 77.2%, 51.5%)" stroke-width="1.5"></path><path d="M682.07 395.04L682.07 395.04" stroke="hsl(228.5, 77.2%, 51.5%)" stroke-width="1.5"></path><path d="M682.07 395.04L795.75 390.58" stroke="hsl(228.5, 77.2%, 51.5%)" stroke-width="1.5"></path><path d="M682.07 395.04L654.06 535.55" stroke="hsl(228.5, 77.2%, 51.5%)" stroke-width="1.5"></path><path d="M654.06 535.55L654.06 535.55" stroke="hsl(228.5, 77.2%, 51.5%)" stroke-width="1.5"></path><path d="M654.06 535.55L812.73 511.59" stroke="hsl(228.5, 77.2%, 51.5%)" stroke-width="1.5"></path><path d="M654.06 535.55L789.73 652.01" stroke="hsl(228.5, 77.2%, 51.5%)" stroke-width="1.5"></path><path d="M795.75 390.58L795.75 390.58" stroke="hsl(228.5, 77.2%, 51.5%)" stroke-width="1.5"></path><path d="M795.75 390.58L812.73 511.59" stroke="hsl(228.5, 77.2%, 51.5%)" stroke-width="1.5"></path><path d="M795.75 390.58L938.72 363.15" stroke="hsl(228.5, 77.2%, 51.5%)" stroke-width="1.5"></path><path d="M795.75 390.58L654.06 535.55" stroke="hsl(228.5, 77.2%, 51.5%)" stroke-width="1.5"></path><path d="M795.75 390.58L992.7 502.63" stroke="hsl(228.5, 77.2%, 51.5%)" stroke-width="1.5"></path><path d="M795.75 390.58L789.73 652.01" stroke="hsl(228.5, 77.2%, 51.5%)" stroke-width="1.5"></path><path d="M812.73 511.59L812.73 511.59" stroke="hsl(228.5, 77.2%, 51.5%)" stroke-width="1.5"></path><path d="M812.73 511.59L789.73 652.01" stroke="hsl(228.5, 77.2%, 51.5%)" stroke-width="1.5"></path><path d="M812.73 511.59L682.07 395.04" stroke="hsl(228.5, 77.2%, 51.5%)" stroke-width="1.5"></path><path d="M812.73 511.59L992.7 502.63" stroke="hsl(228.5, 77.2%, 51.5%)" stroke-width="1.5"></path><path d="M789.73 652.01L789.73 652.01" stroke="hsl(228.5, 77.2%, 51.5%)" stroke-width="1.5"></path><path d="M789.73 652.01L956.99 641.5" stroke="hsl(228.5, 77.2%, 51.5%)" stroke-width="1.5"></path><path d="M938.72 363.15L938.72 363.15" stroke="hsl(228.5, 77.2%, 51.5%)" stroke-width="1.5"></path><path d="M938.72 363.15L992.7 502.63" stroke="hsl(228.5, 77.2%, 51.5%)" stroke-width="1.5"></path><path d="M938.72 363.15L1090.86 365.03" stroke="hsl(228.5, 77.2%, 51.5%)" stroke-width="1.5"></path><path d="M938.72 363.15L812.73 511.59" stroke="hsl(228.5, 77.2%, 51.5%)" stroke-width="1.5"></path><path d="M938.72 363.15L1130.82 517.65" stroke="hsl(228.5, 77.2%, 51.5%)" stroke-width="1.5"></path><path d="M938.72 363.15L1138.76 217.09" stroke="hsl(228.5, 77.2%, 51.5%)" stroke-width="1.5"></path><path d="M992.7 502.63L992.7 502.63" stroke="hsl(228.5, 77.2%, 51.5%)" stroke-width="1.5"></path><path d="M992.7 502.63L1130.82 517.65" stroke="hsl(228.5, 77.2%, 51.5%)" stroke-width="1.5"></path><path d="M992.7 502.63L956.99 641.5" stroke="hsl(228.5, 77.2%, 51.5%)" stroke-width="1.5"></path><path d="M956.99 641.5L956.99 641.5" stroke="hsl(228.5, 77.2%, 51.5%)" stroke-width="1.5"></path><path d="M956.99 641.5L812.73 511.59" stroke="hsl(228.5, 77.2%, 51.5%)" stroke-width="1.5"></path><path d="M1138.76 217.09L1138.76 217.09" stroke="hsl(228.5, 77.2%, 51.5%)" stroke-width="1.5"></path><path d="M1138.76 217.09L1240.51 107.53" stroke="hsl(228.5, 77.2%, 51.5%)" stroke-width="1.5"></path><path d="M1090.86 365.03L1090.86 365.03" stroke="hsl(228.5, 77.2%, 51.5%)" stroke-width="1.5"></path><path d="M1090.86 365.03L1138.76 217.09" stroke="hsl(228.5, 77.2%, 51.5%)" stroke-width="1.5"></path><path d="M1130.82 517.65L1130.82 517.65" stroke="hsl(228.5, 77.2%, 51.5%)" stroke-width="1.5"></path><path d="M1130.82 517.65L1285.48 528.71" stroke="hsl(228.5, 77.2%, 51.5%)" stroke-width="1.5"></path><path d="M1130.82 517.65L1090.86 365.03" stroke="hsl(228.5, 77.2%, 51.5%)" stroke-width="1.5"></path><path d="M1130.82 517.65L1252.63 385.88" stroke="hsl(228.5, 77.2%, 51.5%)" stroke-width="1.5"></path><path d="M1130.82 517.65L1151.6 700.69" stroke="hsl(228.5, 77.2%, 51.5%)" stroke-width="1.5"></path><path d="M1130.82 517.65L1257.83 652.02" stroke="hsl(228.5, 77.2%, 51.5%)" stroke-width="1.5"></path><path d="M1151.6 700.69L1151.6 700.69" stroke="hsl(228.5, 77.2%, 51.5%)" stroke-width="1.5"></path><path d="M1151.6 700.69L956.99 641.5" stroke="hsl(228.5, 77.2%, 51.5%)" stroke-width="1.5"></path><path d="M1256.27 -80.49L1256.27 -80.49" stroke="hsl(228.5, 77.2%, 51.5%)" stroke-width="1.5"></path><path d="M1256.27 -80.49L1240.51 107.53" stroke="hsl(228.5, 77.2%, 51.5%)" stroke-width="1.5"></path><path d="M1256.27 -80.49L1461.56 -85.21" stroke="hsl(228.5, 77.2%, 51.5%)" stroke-width="1.5"></path><path d="M1256.27 -80.49L1398.51 96.45" stroke="hsl(228.5, 77.2%, 51.5%)" stroke-width="1.5"></path><path d="M1256.27 -80.49L1265.83 233.46" stroke="hsl(228.5, 77.2%, 51.5%)" stroke-width="1.5"></path><path d="M1256.27 -80.49L1138.76 217.09" stroke="hsl(228.5, 77.2%, 51.5%)" stroke-width="1.5"></path><path d="M1256.27 -80.49L1437.71 221.02" stroke="hsl(228.5, 77.2%, 51.5%)" stroke-width="1.5"></path><path d="M1240.51 107.53L1240.51 107.53" stroke="hsl(228.5, 77.2%, 51.5%)" stroke-width="1.5"></path><path d="M1252.63 385.88L1252.63 385.88" stroke="hsl(228.5, 77.2%, 51.5%)" stroke-width="1.5"></path><path d="M1252.63 385.88L1391.98 379.55" stroke="hsl(228.5, 77.2%, 51.5%)" stroke-width="1.5"></path><path d="M1285.48 528.71L1285.48 528.71" stroke="hsl(228.5, 77.2%, 51.5%)" stroke-width="1.5"></path><path d="M1285.48 528.71L1257.83 652.02" stroke="hsl(228.5, 77.2%, 51.5%)" stroke-width="1.5"></path><path d="M1461.56 -85.21L1461.56 -85.21" stroke="hsl(228.5, 77.2%, 51.5%)" stroke-width="1.5"></path><path d="M1461.56 -85.21L1398.51 96.45" stroke="hsl(228.5, 77.2%, 51.5%)" stroke-width="1.5"></path><path d="M1461.56 -85.21L1590.71 82.94" stroke="hsl(228.5, 77.2%, 51.5%)" stroke-width="1.5"></path><path d="M1461.56 -85.21L1240.51 107.53" stroke="hsl(228.5, 77.2%, 51.5%)" stroke-width="1.5"></path><path d="M1461.56 -85.21L1437.71 221.02" stroke="hsl(228.5, 77.2%, 51.5%)" stroke-width="1.5"></path><path d="M1461.56 -85.21L1265.83 233.46" stroke="hsl(228.5, 77.2%, 51.5%)" stroke-width="1.5"></path><path d="M1398.51 96.45L1398.51 96.45" stroke="hsl(228.5, 77.2%, 51.5%)" stroke-width="1.5"></path><path d="M1398.51 96.45L1437.71 221.02" stroke="hsl(228.5, 77.2%, 51.5%)" stroke-width="1.5"></path><path d="M1398.51 96.45L1240.51 107.53" stroke="hsl(228.5, 77.2%, 51.5%)" stroke-width="1.5"></path><path d="M1437.71 221.02L1437.71 221.02" stroke="hsl(228.5, 77.2%, 51.5%)" stroke-width="1.5"></path><path d="M1437.71 221.02L1391.98 379.55" stroke="hsl(228.5, 77.2%, 51.5%)" stroke-width="1.5"></path><path d="M1391.98 379.55L1391.98 379.55" stroke="hsl(228.5, 77.2%, 51.5%)" stroke-width="1.5"></path><path d="M1391.98 379.55L1285.48 528.71" stroke="hsl(228.5, 77.2%, 51.5%)" stroke-width="1.5"></path><path d="M1396.81 659.31L1396.81 659.31" stroke="hsl(228.5, 77.2%, 51.5%)" stroke-width="1.5"></path><path d="M1396.81 659.31L1257.83 652.02" stroke="hsl(228.5, 77.2%, 51.5%)" stroke-width="1.5"></path><path d="M1590.71 82.94L1590.71 82.94" stroke="hsl(228.5, 77.2%, 51.5%)" stroke-width="1.5"></path><path d="M1590.71 82.94L1398.51 96.45" stroke="hsl(228.5, 77.2%, 51.5%)" stroke-width="1.5"></path><path d="M1590.71 82.94L1437.71 221.02" stroke="hsl(228.5, 77.2%, 51.5%)" stroke-width="1.5"></path><path d="M1590.71 82.94L1588.06 408.54" stroke="hsl(228.5, 77.2%, 51.5%)" stroke-width="1.5"></path><path d="M1590.71 82.94L1240.51 107.53" stroke="hsl(228.5, 77.2%, 51.5%)" stroke-width="1.5"></path><path d="M1597.03 542.39L1597.03 542.39" stroke="hsl(228.5, 77.2%, 51.5%)" stroke-width="1.5"></path><path d="M1597.03 542.39L1558.29 672.44" stroke="hsl(228.5, 77.2%, 51.5%)" stroke-width="1.5"></path><path d="M1597.03 542.39L1396.81 659.31" stroke="hsl(228.5, 77.2%, 51.5%)" stroke-width="1.5"></path><path d="M1597.03 542.39L1391.98 379.55" stroke="hsl(228.5, 77.2%, 51.5%)" stroke-width="1.5"></path><path d="M1558.29 672.44L1558.29 672.44" stroke="hsl(228.5, 77.2%, 51.5%)" stroke-width="1.5"></path><path d="M1558.29 672.44L1396.81 659.31" stroke="hsl(228.5, 77.2%, 51.5%)" stroke-width="1.5"></path><circle r="25" cx="-57.96" cy="675.17" fill="url(&quot;#SvgjsRadialGradient2431&quot;)"></circle><circle r="25" cx="343.16" cy="493.77" fill="url(&quot;#SvgjsRadialGradient2431&quot;)"></circle><circle r="25" cx="1265.83" cy="233.46" fill="url(&quot;#SvgjsRadialGradient2431&quot;)"></circle><circle r="25" cx="1257.83" cy="652.02" fill="url(&quot;#SvgjsRadialGradient2431&quot;)"></circle><circle r="25" cx="1414.21" cy="516.74" fill="url(&quot;#SvgjsRadialGradient2431&quot;)"></circle><circle r="25" cx="1588.06" cy="408.54" fill="url(&quot;#SvgjsRadialGradient2431&quot;)"></circle><circle r="5" cx="-103.22" cy="511.73" fill="#8b9ad9"></circle><circle r="5" cx="45.02" cy="512.29" fill="#8b9ad9"></circle><circle r="5" cx="101.82" cy="673.18" fill="#8b9ad9"></circle><circle r="5" cx="223.06" cy="518.66" fill="#8b9ad9"></circle><circle r="5" cx="208.99" cy="664.06" fill="#8b9ad9"></circle><circle r="5" cx="355.42" cy="694.6" fill="#8b9ad9"></circle><circle r="5" cx="505.38" cy="534.09" fill="#8b9ad9"></circle><circle r="5" cx="517.94" cy="679.7" fill="#8b9ad9"></circle><circle r="5" cx="682.07" cy="395.04" fill="#8b9ad9"></circle><circle r="5" cx="654.06" cy="535.55" fill="#8b9ad9"></circle><circle r="5" cx="795.75" cy="390.58" fill="#8b9ad9"></circle><circle r="5" cx="812.73" cy="511.59" fill="#8b9ad9"></circle><circle r="5" cx="789.73" cy="652.01" fill="#8b9ad9"></circle><circle r="5" cx="938.72" cy="363.15" fill="#8b9ad9"></circle><circle r="5" cx="992.7" cy="502.63" fill="#8b9ad9"></circle><circle r="5" cx="956.99" cy="641.5" fill="#8b9ad9"></circle><circle r="5" cx="1138.76" cy="217.09" fill="#8b9ad9"></circle><circle r="5" cx="1090.86" cy="365.03" fill="#8b9ad9"></circle><circle r="5" cx="1130.82" cy="517.65" fill="#8b9ad9"></circle><circle r="5" cx="1151.6" cy="700.69" fill="#8b9ad9"></circle><circle r="5" cx="1256.27" cy="-80.49" fill="#8b9ad9"></circle><circle r="5" cx="1240.51" cy="107.53" fill="#8b9ad9"></circle><circle r="5" cx="1252.63" cy="385.88" fill="#8b9ad9"></circle><circle r="5" cx="1285.48" cy="528.71" fill="#8b9ad9"></circle><circle r="5" cx="1461.56" cy="-85.21" fill="#8b9ad9"></circle><circle r="5" cx="1398.51" cy="96.45" fill="#8b9ad9"></circle><circle r="5" cx="1437.71" cy="221.02" fill="#8b9ad9"></circle><circle r="5" cx="1391.98" cy="379.55" fill="#8b9ad9"></circle><circle r="5" cx="1396.81" cy="659.31" fill="#8b9ad9"></circle><circle r="5" cx="1590.71" cy="82.94" fill="#8b9ad9"></circle><circle r="5" cx="1597.03" cy="542.39" fill="#8b9ad9"></circle><circle r="5" cx="1558.29" cy="672.44" fill="#8b9ad9"></circle></g><defs><mask id="SvgjsMask2429"><rect width="1440" height="560" fill="#ffffff"></rect></mask><linearGradient x1="15.28%" y1="139.29%" x2="84.72%" y2="-39.29%" gradientUnits="userSpaceOnUse" id="SvgjsLinearGradient2430"><stop stop-color="#0e2a47" offset="0"></stop><stop stop-color="rgba(20, 29, 41, 1)" offset="1"></stop></linearGradient><radialGradient id="SvgjsRadialGradient2431"><stop stop-color="#ffffff" offset="0.1"></stop><stop stop-color="#1735b3" offset="0.2"></stop><stop stop-color="rgba(23, 53, 179, 0)" offset="1"></stop></radialGradient></defs></svg>